<svg data-v-0dd9719b="" version="1.0" xmlns="http://www.w3.org/2000/svg" xmlns:xlink="http://www.w3.org/1999/xlink" width="100%" height="100%" viewBox="0 0 340.000000 250.000000" preserveAspectRatio="xMidYMid meet" color-interpolation-filters="sRGB" style="margin: auto;"> <rect data-v-0dd9719b="" x="0" y="0" width="100%" height="100%" fill="#ffffff" fill-opacity="1" class="background"></rect> <rect data-v-0dd9719b="" x="0" y="0" width="100%" height="100%" fill="url(#watermark)" fill-opacity="1" class="watermarklayer"></rect> <g data-v-0dd9719b="" fill="#3a533d" class="icon-text-wrapper icon-svg-group iconsvg" transform="translate(54.779998779296875,94.99939918518066)"><g class="iconsvg-imagesvg" transform="translate(0,0)"><g><rect fill="#3a533d" fill-opacity="0" stroke-width="2" x="0" y="0" width="59.99999999999955" height="60.001200024000035" class="image-rect"></rect> <svg x="0" y="0" width="59.99999999999955" height="60.001200024000035" filtersec="colorsb6488295104" class="image-svg-svg primary" style="overflow: visible;"><svg version="1.1" id="cube" xmlns="http://www.w3.org/2000/svg" xmlns:xlink="http://www.w3.org/1999/xlink" x="0px" y="0px" viewBox="9.789997100830078 7.599999904632568 490.46002197265625 490.47003173828125" enable-background="new 0 0 511 507.62" xml:space="preserve">
<path fill="#3a533d" d="M372.43,83.05L290.7,222.44c-10.87,18.55-4.65,42.4,13.89,53.27l131.08,76.86
	c18.54,10.87,42.41,4.53,49.78-15.66c9.58-26.22,14.8-54.53,14.8-84.07c0-70.68-29.9-134.37-77.74-179.13
	C406.82,59.02,383.3,64.5,372.43,83.05z"></path>
<path fill="#3a533d" d="M273.91,212.6l81.96-139.78c10.87-18.55,4.58-42.49-15.57-49.97C313.74,12.99,285.01,7.6,255.02,7.6
	c-74.3,0-140.88,33.05-185.84,85.24c-14.03,16.29-7.94,40.19,10.6,51.06l140.86,82.59C239.19,237.36,263.04,231.14,273.91,212.6z"></path>
<path fill="#b4dd7b" d="M147.17,428.76l77.51-132.21c10.87-18.55,4.65-42.4-13.89-53.27L70.21,160.86
	c-18.54-10.88-41.86-4.23-48.49,16.22c-7.74,23.86-11.93,49.32-11.93,75.76c0,74.76,33.46,141.7,86.21,186.68
	C112.36,453.47,136.3,447.3,147.17,428.76z"></path>
<path fill="#b4dd7b" d="M241.48,306.39l-77.29,131.83c-10.87,18.55-4.19,41.78,16.3,48.31c23.51,7.49,48.55,11.54,74.54,11.54
	c71.14,0,135.2-30.29,179.99-78.68c14.61-15.78,9.05-39.35-9.5-50.22L294.75,292.5C276.2,281.63,252.35,287.85,241.48,306.39z"></path>
</svg></svg> <!----></g></g> <g transform="translate(67,6.0993499755859375)"><g data-gra="path-name" fill-rule="" class="tp-name iconsvg-namesvg" transform="translate(0,0)"><g transform="scale(1)"><g><path d="M15.07-4.5L18.31-4.5Q18.68-4.5 18.97-4.77 19.26-5.04 19.26-5.44L19.26-5.44 19.26-16.34 1.84-16.34 1.84-20.7 19.26-20.7 24.84-20.7 39.42-20.7 39.42-16.34 24.84-16.34 24.84-3.46Q24.84-2.02 23.87-1.06 22.9-0.09 21.46-0.09L21.46-0.09 13.14-0.09 15.07-4.5ZM6.66-25.33L6.66-22.68 1.08-22.68 1.08-29.74 6.66-29.74 16.7-29.74 15.48-32.35 21.64-32.35 22.9-29.74 36.09-29.74Q37.84-29.74 39.08-28.51 40.32-27.27 40.32-25.52L40.32-25.52 40.32-22.68 34.74-22.68 34.74-23.94Q34.74-24.52 34.34-24.93 33.93-25.33 33.34-25.33L33.34-25.33 6.66-25.33ZM52.56-12.82L48.38 0 42.16 0 46.35-12.82 52.56-12.82ZM46.35-14.94L42.16-25.02 45.23-25.02 42.16-32.45 48.38-32.45 52.56-22.32 49.5-22.32 52.56-14.94 46.35-14.94ZM58.14-0.09L51.93-0.09 53.46-5.17 53.46-26.01 53.46-29.97 53.46-30.38 66.87-30.38 66.87-32.45 72.81-32.45 72.81-30.38 81.99-30.38 79.97-22.36 74.25-22.36 75.24-26.01 72.81-26.01 72.81-21.06 80.86-21.06 80.86-16.7Q80.37-13.86 79.04-11.54 77.72-9.22 75.82-7.33L75.82-7.33Q77-6.79 78.28-6.41 79.56-6.03 80.86-5.76L80.86-5.76 80.86-0.04Q78.3-0.45 75.67-1.3 73.03-2.16 70.6-3.51L70.6-3.51Q68.17-2.16 65.56-1.3 62.95-0.45 60.39-0.04L60.39-0.04 60.39-5.76Q61.69-6.03 62.95-6.43 64.22-6.84 65.43-7.33L65.43-7.33Q63.67-9.04 62.41-11.14 61.16-13.23 60.57-15.75L60.57-15.75 66.96-15.75Q67.63-14.17 68.56-12.91 69.48-11.65 70.6-10.62L70.6-10.62Q71.91-11.79 72.92-13.3 73.94-14.8 74.7-16.7L74.7-16.7 59.71-16.7 59.71-5.17 58.14-0.09ZM66.87-26.01L59.71-26.01 59.71-21.06 66.87-21.06 66.87-26.01ZM99.85-29.56L99.85-32.31 123.16-32.31 123.16-29.56 99.85-29.56ZM122.49-28.62L122.49-22.41Q122.49-20.7 121.32-19.62 120.15-18.54 118.3-18.54L118.3-18.54 100.35-18.54 100.35-28.62 122.49-28.62ZM117.72-24.75L117.72-25.96 113.89-25.96 113.89-24.75 117.72-24.75ZM109.57-25.96L105.12-25.96 105.12-24.75 109.57-24.75 109.57-25.96ZM105.12-22.41L105.12-21.29 109.57-21.29 109.57-22.41 105.12-22.41ZM113.89-21.29L116.46-21.29Q116.95-21.29 117.31-21.6 117.67-21.91 117.72-22.41L117.72-22.41 113.89-22.41 113.89-21.29ZM122.49-14.04L122.49-7.38Q122.49-5.67 121.32-4.61 120.15-3.55 118.3-3.55L118.3-3.55 100.35-3.55 100.35-14.04 122.49-14.04ZM117.72-10.04L117.72-11.38 113.89-11.38 113.89-10.04 117.72-10.04ZM109.57-11.38L105.12-11.38 105.12-10.04 109.57-10.04 109.57-11.38ZM105.12-7.69L105.12-6.3 109.57-6.3 109.57-7.69 105.12-7.69ZM113.89-6.3L116.46-6.3Q117-6.3 117.36-6.64 117.72-6.97 117.72-7.47L117.72-7.47 117.72-7.69 113.89-7.69 113.89-6.3ZM99.85-14.89L99.85-17.64 123.16-17.64 123.16-14.89 99.85-14.89ZM84.33-8.14L86.63-8.14 86.63-10.13 84.69-10.13 84.69-12.91 86.63-12.91 86.63-14.17 90.27-14.17 90.27-12.91 92.2-12.91 92.2-10.13 90.27-10.13 90.27-8.14 92.56-8.14 92.56-5.4 84.33-5.4 84.33-8.14ZM99.85 0.09L99.85-2.65 123.16-2.65 123.16 0.09 99.85 0.09ZM83.83-28.53L83.83-32.49 98.82-32.49 98.82-21.87 89.82-21.87 89.46-18.95 98.82-18.95 98.82-4.77Q98.82-3.73 98.44-2.86 98.05-1.98 97.38-1.33 96.7-0.67 95.8-0.29 94.91 0.09 93.91 0.09L93.91 0.09 86.49 0.09 88.47-4.05 91.94-4.05Q92.52-4.05 92.92-4.46 93.33-4.86 93.33-5.44L93.33-5.44 93.33-14.98 83.83-14.98 85.23-25.83 93.33-25.83 93.33-28.53 83.83-28.53ZM144.54-26.64L141.66-32.63 148.54-32.63 151.42-26.64 144.54-26.64ZM164.52-31.72L164.52-4.81Q164.52-3.78 164.14-2.88 163.75-1.98 163.1-1.3 162.45-0.63 161.55-0.25 160.65 0.14 159.61 0.14L159.61 0.14 154.03 0.18 155.74-3.73 157.19-3.73Q157.77-3.73 158.17-4.14 158.58-4.54 158.58-5.13L158.58-5.13 158.58-27.27 151.78-27.27 151.78-31.72 164.52-31.72ZM137.25 0.22L137.2-28.62 142.96-28.62 143.01 0.22 137.25 0.22ZM135.63-12.69L131.44 0.22 125.23 0.22 129.42-12.69 135.63-12.69ZM129.42-14.8L125.23-24.97 128.29-24.97 125.23-32.4 131.44-32.4 135.63-22.27 132.57-22.27 135.63-14.8 129.42-14.8ZM157.19-9.31L157.19-5.44 144.4-5.44 144.4-9.31 148.19-9.31 148.19-13.23 144.76-13.23 144.76-17.05 148.19-17.05 148.19-21.02 144.4-21.02 144.4-24.75 157.19-24.75 157.19-21.02 153.4-21.02 153.4-17.05 156.78-17.05 156.78-13.23 153.4-13.23 153.4-9.31 157.19-9.31Z" transform="translate(-1.0800000429153442, 32.630001068115234)"></path></g> <!----> <!----> <!----> <!----> <!----> <!----> <!----></g></g> <g data-gra="path-slogan" fill-rule="" class="tp-slogan iconsvg-slogansvg" fill="#3a533d" transform="translate(5,38.85000228881836)"><rect x="0" height="1" y="3.9750003814697266" width="4.779998779296875"></rect> <rect height="1" y="3.9750003814697266" width="4.779998779296875" x="148.66000366210938"></rect> <g transform="translate(7.779998779296875,0)"><g transform="scale(1)"><path d="M2.30-8.58L6.61-1.64L6.61-8.58L7.73-8.58L7.73 0L6.42 0L2.06-6.94L2.02-6.94L2.02 0L0.89 0L0.89-8.58L2.30-8.58ZM11.70-8.58L12.88-8.58L12.88 0L11.70 0L11.70-8.58ZM18.25-8.58L22.56-1.64L22.56-8.58L23.69-8.58L23.69 0L22.38 0L18.02-6.94L17.97-6.94L17.97 0L16.84 0L16.84-8.58L18.25-8.58ZM33.89-3.61L31.27-3.61L31.27-4.59L35.02-4.59L35.02 0L34.27 0L33.98-1.08Q33 0.09 31.17 0.14L31.17 0.14Q29.44 0.14 28.50-0.75L28.50-0.75Q27.09-2.06 27.14-4.36L27.14-4.36Q27.47-8.63 31.22-8.81L31.22-8.81Q34.41-8.63 34.88-6L34.88-6L33.75-6Q33.28-7.78 31.17-7.83L31.17-7.83Q28.50-7.64 28.36-4.31L28.36-4.31Q28.36-0.75 31.22-0.75L31.22-0.75Q32.25-0.75 33-1.31L33-1.31Q33.94-2.06 33.89-3.61L33.89-3.61ZM42.03-7.64L39.97-7.64L39.97-4.97L42.03-4.97Q43.86-4.92 43.81-6.38L43.81-6.38Q43.81-7.64 42.03-7.64L42.03-7.64ZM42.50 0L38.80 0L38.80-8.58L42.59-8.58Q44.89-8.48 44.98-6.42L44.98-6.42Q44.98-5.16 43.86-4.64L43.86-4.64Q45.45-4.08 45.45-2.53L45.45-2.53Q45.31-0.09 42.50 0L42.50 0ZM42.22-3.98L39.97-3.98L39.97-0.98L42.45-0.98Q44.23-1.03 44.28-2.53L44.28-2.53Q44.28-3.98 42.22-3.98L42.22-3.98ZM55.56-4.27L55.56-4.27Q55.38-7.64 52.56-7.83L52.56-7.83Q49.70-7.69 49.56-4.27L49.56-4.27Q49.70-0.94 52.56-0.80L52.56-0.80Q55.38-0.98 55.56-4.27ZM56.73-4.27L56.73-4.27Q56.45 0 52.56 0.14L52.56 0.14Q48.63 0 48.34-4.27L48.34-4.27Q48.58-8.72 52.56-8.81L52.56-8.81Q56.45-8.67 56.73-4.27ZM64.72-1.92L64.72-2.77L65.80-2.77L65.80-2.16Q65.80-0.75 67.11-0.75L67.11-0.75Q68.47-0.75 68.47-2.25L68.47-2.25L68.47-8.58L69.64-8.58L69.64-2.30Q69.59 0.09 67.16 0.14L67.16 0.14Q64.86 0.09 64.72-1.92L64.72-1.92ZM73.61-8.58L74.78-8.58L74.78 0L73.61 0L73.61-8.58ZM84.42 0L83.58-2.48L80.11-2.48L79.22 0L78.05 0L81.28-8.58L82.59-8.58L85.69 0L84.42 0ZM81.84-7.31L80.48-3.52L83.16-3.52L81.89-7.31L81.84-7.31ZM90.13-8.58L94.44-1.64L94.44-8.58L95.56-8.58L95.56 0L94.25 0L89.89-6.94L89.84-6.94L89.84 0L88.72 0L88.72-8.58L90.13-8.58ZM105.77-3.61L103.14-3.61L103.14-4.59L106.89-4.59L106.89 0L106.14 0L105.86-1.08Q104.88 0.09 103.05 0.14L103.05 0.14Q101.31 0.14 100.38-0.75L100.38-0.75Q98.97-2.06 99.02-4.36L99.02-4.36Q99.34-8.63 103.09-8.81L103.09-8.81Q106.28-8.63 106.75-6L106.75-6L105.63-6Q105.16-7.78 103.05-7.83L103.05-7.83Q100.38-7.64 100.23-4.31L100.23-4.31Q100.23-0.75 103.09-0.75L103.09-0.75Q104.13-0.75 104.88-1.31L104.88-1.31Q105.81-2.06 105.77-3.61L105.77-3.61ZM114.80-3.70L111.98-3.70L111.98 0L110.81 0L110.81-8.58L114.80-8.58Q117.66-8.58 117.66-6.28L117.66-6.28Q117.66-4.88 116.44-4.22L116.44-4.22Q117.47-3.94 117.47-2.58L117.47-2.58L117.56-1.03Q117.52-0.38 117.98-0.19L117.98-0.19L117.98 0L116.53 0Q116.39-0.61 116.34-2.16L116.34-2.16Q116.39-3.70 114.80-3.70L114.80-3.70ZM114.89-7.64L111.98-7.64L111.98-4.69L114.70-4.69Q116.44-4.69 116.44-6.19L116.44-6.19Q116.44-7.64 114.89-7.64L114.89-7.64ZM126.97-3.19L126.97-8.58L128.14-8.58L128.14-3.05Q128 0.05 124.63 0.14L124.63 0.14Q121.48 0.05 121.34-2.86L121.34-2.86L121.34-8.58L122.52-8.58L122.52-3.19Q122.56-0.84 124.67-0.80L124.67-0.80Q126.97-0.84 126.97-3.19L126.97-3.19ZM133.33-8.58L137.64-1.64L137.64-8.58L138.77-8.58L138.77 0L137.45 0L133.09-6.94L133.05-6.94L133.05 0L131.92 0L131.92-8.58L133.33-8.58Z" transform="translate(-0.890625, 8.8125)"></path></g></g></g></g></g><defs v-gra="od"></defs></svg>